<svg width="9" height="11" viewBox="0 0 9 11" fill="none" xmlns="http://www.w3.org/2000/svg">
<path d="M1.10156 3.27344V10.0703H6.02344V3.27344H1.10156ZM0.75 2.57031H6.375C6.46824 2.57031 6.55766 2.60735 6.62359 2.67328C6.68952 2.73921 6.72656 2.82863 6.72656 2.92188V10.4219C6.72656 10.5151 6.68952 10.6045 6.62359 10.6705C6.55766 10.7364 6.46824 10.7734 6.375 10.7734H0.75C0.65676 10.7734 0.567338 10.7364 0.501408 10.6705C0.435477 10.6045 0.398438 10.5151 0.398438 10.4219V2.92188C0.398438 2.82863 0.435477 2.73921 0.501408 2.67328C0.567338 2.60735 0.65676 2.57031 0.75 2.57031ZM3.13687 1.16406V1.98438H2.43375V0.8125C2.43375 0.71926 2.47079 0.629838 2.53672 0.563908C2.60265 0.497977 2.69207 0.460938 2.78531 0.460938H8.41031C8.50355 0.460938 8.59297 0.497977 8.6589 0.563908C8.72483 0.629838 8.76187 0.71926 8.76187 0.8125V8.3125C8.76187 8.40574 8.72483 8.49516 8.6589 8.56109C8.59297 8.62702 8.50355 8.66406 8.41031 8.66406H7.3125V7.96094H8.05875V1.16406H3.13687ZM2.39062 5.26562V4.5625H4.73437V5.26562H2.39062ZM2.39062 6.90625V6.20312H4.73437V6.90625H2.39062Z" fill="white"/>
</svg>
